<svg width="19" height="18" viewBox="0 0 19 18" fill="none" xmlns="http://www.w3.org/2000/svg">
<path d="M14.4085 0.135101H4.61819C3.4663 0.135101 2.87905 0.248504 2.26783 0.575385C1.70358 0.877149 1.25538 1.32536 0.953613 1.88961C0.626732 2.50082 0.513329 3.08807 0.513329 4.23996V10.0302C0.513329 11.1821 0.626732 11.7694 0.953613 12.3806C1.25538 12.9448 1.70358 13.3931 2.26783 13.6948L2.40872 13.7665C2.92573 14.0158 3.458 14.1178 4.36212 14.133L4.61333 14.1351V16.35C4.61333 16.7818 4.78262 17.1965 5.08488 17.5049L5.20149 17.6131C5.84424 18.1547 6.80566 18.1288 7.41821 17.5284L10.8793 14.1351H14.4085C15.5604 14.1351 16.1476 14.0217 16.7588 13.6948C17.3231 13.3931 17.7713 12.9448 18.073 12.3806C18.3999 11.7694 18.5133 11.1821 18.5133 10.0302V4.23996C18.5133 3.08807 18.3999 2.50082 18.073 1.88961C17.7713 1.32536 17.3231 0.877149 16.7588 0.575385C16.1476 0.248504 15.5604 0.135101 14.4085 0.135101ZM4.42499 1.93617L14.4085 1.9351C15.2886 1.9351 15.5951 1.99429 15.9099 2.16265C16.1605 2.29665 16.3518 2.48792 16.4858 2.73848C16.6541 3.05328 16.7133 3.35981 16.7133 4.23996V10.0302L16.7089 10.3979C16.6925 11.0049 16.6282 11.2654 16.4858 11.5317C16.3518 11.7823 16.1605 11.9735 15.9099 12.1076C15.5951 12.2759 15.2886 12.3351 14.4085 12.3351H10.5133L10.3966 12.3427C10.204 12.3679 10.0236 12.4549 9.88339 12.5923L6.41333 15.9921V13.2351C6.41333 12.738 6.01039 12.3351 5.51333 12.3351H4.61819L4.25057 12.3307C3.64352 12.3143 3.38308 12.25 3.11671 12.1076C2.86614 11.9735 2.67488 11.7823 2.54088 11.5317C2.37252 11.2169 2.31333 10.9104 2.31333 10.0302V4.23996L2.31771 3.87235C2.33413 3.26529 2.39842 3.00485 2.54088 2.73848C2.67488 2.48792 2.86614 2.29665 3.11671 2.16265C3.40729 2.00724 3.69083 1.94485 4.42499 1.93617Z" fill="#99A2AD"/>
</svg>
