<svg width="35" height="32" viewBox="0 0 35 32" fill="none" xmlns="http://www.w3.org/2000/svg">
<path d="M30.2479 8.88531C29.8331 7.97632 29.2349 7.1526 28.487 6.46027C27.7385 5.76587 26.8559 5.21404 25.8874 4.83479C24.8831 4.43997 23.8059 4.23788 22.7184 4.24025C21.1927 4.24025 19.7041 4.63563 18.4105 5.38248C18.101 5.56113 17.807 5.75736 17.5285 5.97116C17.25 5.75736 16.956 5.56113 16.6465 5.38248C15.3529 4.63563 13.8644 4.24025 12.3387 4.24025C11.24 4.24025 10.1754 4.43941 9.16964 4.83479C8.1979 5.21553 7.32209 5.76322 6.57007 6.46027C5.82113 7.15182 5.22286 7.97573 4.80917 8.88531C4.379 9.83131 4.15927 10.8359 4.15927 11.8697C4.15927 12.845 4.36971 13.8613 4.7875 14.8952C5.13721 15.7592 5.63855 16.6554 6.27916 17.5604C7.29424 18.9926 8.68996 20.4863 10.423 22.0004C13.2949 24.5104 16.139 26.2443 16.2597 26.3145L16.9931 26.7597C17.3181 26.9559 17.7359 26.9559 18.0608 26.7597L18.7943 26.3145C18.915 26.2413 21.7559 24.5104 24.6309 22.0004C26.364 20.4863 27.7597 18.9926 28.7748 17.5604C29.4154 16.6554 29.9198 15.7592 30.2664 14.8952C30.6842 13.8613 30.8947 12.845 30.8947 11.8697C30.8978 10.8359 30.678 9.83131 30.2479 8.88531Z" fill="white"/>
</svg>
