<svg width="18" height="20" viewBox="0 0 18 20" fill="none" xmlns="http://www.w3.org/2000/svg">
<path d="M8.08566 8.07582H2.49556C2.28275 8.07383 2.072 8.11771 1.87767 8.20447C1.68333 8.29123 1.50997 8.41884 1.36937 8.57861C1.22877 8.73838 1.12424 8.92656 1.0629 9.13035C1.00155 9.33414 0.984819 9.54875 1.01385 9.75958C1.04785 10.1496 1.22824 10.5122 1.51874 10.7746C1.80925 11.037 2.18833 11.1797 2.57975 11.1739H2.84915C2.50049 11.1868 2.16963 11.3312 1.92308 11.5781C1.80424 11.7037 1.71173 11.8518 1.651 12.0138C1.59027 12.1757 1.56256 12.3482 1.56949 12.521C1.57569 12.861 1.70564 13.187 1.93501 13.4381C2.16438 13.6892 2.47742 13.848 2.81548 13.8848C2.65446 14.0111 2.52394 14.1721 2.43358 14.3557C2.34322 14.5393 2.29535 14.7409 2.29351 14.9456C2.29118 15.2623 2.39913 15.5699 2.59882 15.8156C2.79852 16.0614 3.07752 16.23 3.38796 16.2926C3.22091 16.5767 3.16682 16.9133 3.23642 17.2355C3.32576 17.5434 3.51475 17.8129 3.77376 18.0019C4.03277 18.1908 4.34715 18.2884 4.66762 18.2794H8.52344C9.02852 18.2771 9.53154 18.2149 10.022 18.0942L12.4129 17.3029H15.6121C17.2959 17.3029 17.7505 9.49018 15.6121 9.49018C15.3036 9.50717 14.9945 9.50717 14.686 9.49018C14.686 9.49018 14.4335 9.17027 14.0125 8.71565C13.3895 8.04214 12.6992 7.18342 12.2109 6.71197C11.0124 5.65386 10.0389 4.36549 9.34849 2.9235C9.21166 2.60739 9.03021 2.31254 8.80968 2.04794C8.52925 1.81211 8.16741 1.69585 7.8021 1.72419C7.43678 1.75254 7.09721 1.92322 6.85651 2.19948C6.68202 2.3882 6.5398 2.60437 6.43557 2.83931C6.36971 3.0027 6.31899 3.17178 6.28403 3.34444C6.23886 3.81915 6.27877 4.29812 6.4019 4.7588C6.50237 5.24517 6.65478 5.71934 6.85651 6.17317C7.17552 6.76672 7.54746 7.33026 7.9678 7.85693C8.01975 7.88894 8.06083 7.93589 8.08566 7.99163" stroke="#99A2AD" stroke-width="1.5" stroke-linecap="round" stroke-linejoin="round"/>
</svg>
