<svg width="35" height="32" viewBox="0 0 35 32" fill="none" xmlns="http://www.w3.org/2000/svg">
<g clip-path="url(#clip0_3_1017)">
<path d="M10.5177 17.573C15.8206 17.573 20.462 19.509 20.462 23.766C20.462 25.999 19.5453 27 17.6191 27H3.41626C1.47845 27 0.573364 25.999 0.573364 23.766C0.573364 19.509 5.21482 17.573 10.5177 17.573ZM20.7057 18.904C20.6129 18.211 21.1234 17.584 21.8545 17.496C22.5971 17.408 23.6646 17.353 24.4421 17.408C29.7217 17.826 34.3864 19.509 34.3864 23.766C34.3864 25.999 33.4697 27 31.5435 27H23.7807C23.0496 27 22.4578 26.439 22.4578 25.746L22.5159 23.931C22.5391 22.974 22.3882 22.028 22.0633 21.137C21.9125 20.719 21.6804 20.345 21.4367 19.971L20.7173 18.904H20.7057ZM24.4421 5C27.5518 5 30.0814 7.387 30.0814 10.346C30.0814 13.305 27.5635 15.692 24.4421 15.692C21.3207 15.692 18.8027 13.305 18.8027 10.346C18.8027 7.387 21.3323 5 24.4421 5ZM10.5177 5C13.6275 5 16.1571 7.387 16.1571 10.346C16.1571 13.305 13.6391 15.692 10.5177 15.692C7.39631 15.692 4.87832 13.294 4.87832 10.346C4.87832 7.398 7.40791 5 10.5177 5Z" fill="white"/>
</g>
<defs>
<clipPath id="clip0_3_1017">
<rect width="33.813" height="32" fill="white" transform="translate(0.573364)"/>
</clipPath>
</defs>
</svg>
