<svg width="21" height="27" viewBox="0 0 21 27" fill="none" xmlns="http://www.w3.org/2000/svg">
<path d="M18.1303 0.5H3.33709C2.63649 0.5 1.96457 0.763392 1.46917 1.23223C0.973765 1.70107 0.69545 2.33696 0.69545 3V25C0.695355 25.2678 0.771018 25.5307 0.914582 25.7615C1.05815 25.9923 1.26438 26.1825 1.51185 26.3123C1.75933 26.4422 2.03903 26.507 2.32191 26.5C2.60478 26.493 2.88052 26.4144 3.12048 26.2725L10.7324 21.7725L18.3469 26.2725C18.5869 26.4144 18.8626 26.493 19.1455 26.5C19.4284 26.507 19.7081 26.4422 19.9555 26.3123C20.203 26.1825 20.4092 25.9923 20.5528 25.7615C20.6964 25.5307 20.772 25.2678 20.7719 25V3C20.7719 2.33696 20.4936 1.70107 19.9982 1.23223C19.5028 0.763392 18.8309 0.5 18.1303 0.5ZM17.602 22.2938L11.5724 18.7275C11.3205 18.5785 11.0294 18.4995 10.7324 18.4995C10.4353 18.4995 10.1442 18.5785 9.89233 18.7275L3.86542 22.2938V3.5H17.602V22.2938Z" fill="white"/>
</svg>
