<svg width="40" height="41" viewBox="0 0 40 41" fill="none" xmlns="http://www.w3.org/2000/svg">
<path fill-rule="evenodd" clip-rule="evenodd" d="M10.4039 15.3333C11.0351 17.2684 12.8542 18.6667 15 18.6667C17.1458 18.6667 18.9649 17.2684 19.5961 15.3333C24.1752 15.3333 28.7542 15.3333 33.3333 15.3333C34.1618 15.3333 34.8333 14.6618 34.8333 13.8333C34.8333 13.0049 34.1618 12.3333 33.3333 12.3333C28.7542 12.3333 24.1752 12.3333 19.5961 12.3333C19.5799 12.2827 19.6016 12.3502 19.5961 12.3333C18.9649 10.3983 17.1458 9 15 9C12.8542 9 11.0351 10.3983 10.4039 12.3333C9.15819 12.3333 7.91243 12.3333 6.66667 12.3333C5.83824 12.3333 5.16667 13.0049 5.16667 13.8333C5.16667 14.6618 5.83824 15.3333 6.66667 15.3333C7.91243 15.3333 9.15819 15.3333 10.4039 15.3333ZM15 12C13.9875 12 13.1667 12.8208 13.1667 13.8333C13.1667 14.8459 13.9875 15.6667 15 15.6667C16.0125 15.6667 16.8333 14.8459 16.8333 13.8333C16.8333 12.8208 16.0125 12 15 12Z" fill="#0A66C2"/>
<path fill-rule="evenodd" clip-rule="evenodd" d="M5.16667 27.1667C5.16667 26.3382 5.83824 25.6667 6.66667 25.6667C11.2458 25.6667 15.8249 25.6667 20.404 25.6667C21.0351 23.7316 22.8542 22.3333 25 22.3333C27.1458 22.3333 28.9649 23.7316 29.5961 25.6667C29.5961 25.6667 32.4643 25.6667 33.3333 25.6667C34.1618 25.6667 34.8333 26.3382 34.8333 27.1667C34.8333 27.9951 34.1618 28.6667 33.3333 28.6667C32.9629 28.6667 29.5961 28.6667 29.5961 28.6667C28.9649 30.6017 27.1458 32 25 32C22.8542 32 21.0351 30.6017 20.404 28.6667C15.8249 28.6667 11.2458 28.6667 6.66667 28.6667C5.83824 28.6667 5.16667 27.9951 5.16667 27.1667ZM23.1667 27.1667C23.1667 26.1541 23.9875 25.3333 25 25.3333C26.0125 25.3333 26.8333 26.1541 26.8333 27.1667C26.8333 28.1792 26.0125 29 25 29C23.9875 29 23.1667 28.1792 23.1667 27.1667Z" fill="#0A66C2"/>
<path d="M19.5961 12.3333C18.9649 10.3983 17.1458 9 15 9C12.8542 9 11.0351 10.3983 10.4039 12.3333C9.15819 12.3333 7.91243 12.3333 6.66667 12.3333C5.83824 12.3333 5.16667 13.0049 5.16667 13.8333C5.16667 14.6618 5.83824 15.3333 6.66667 15.3333C7.91243 15.3333 9.15819 15.3333 10.4039 15.3333C11.0351 17.2684 12.8542 18.6667 15 18.6667C17.1458 18.6667 18.9649 17.2684 19.5961 15.3333C24.1752 15.3333 28.7542 15.3333 33.3333 15.3333C34.1618 15.3333 34.8333 14.6618 34.8333 13.8333C34.8333 13.0049 34.1618 12.3333 33.3333 12.3333C28.7542 12.3333 24.1752 12.3333 19.5961 12.3333ZM19.5961 12.3333C19.6016 12.3502 19.5799 12.2827 19.5961 12.3333ZM13.1667 13.8333C13.1667 12.8208 13.9875 12 15 12C16.0125 12 16.8333 12.8208 16.8333 13.8333C16.8333 14.8459 16.0125 15.6667 15 15.6667C13.9875 15.6667 13.1667 14.8459 13.1667 13.8333ZM6.66667 25.6667C5.83824 25.6667 5.16667 26.3382 5.16667 27.1667C5.16667 27.9951 5.83824 28.6667 6.66667 28.6667C11.2458 28.6667 15.8249 28.6667 20.404 28.6667C21.0351 30.6017 22.8542 32 25 32C27.1458 32 28.9649 30.6017 29.5961 28.6667C29.5961 28.6667 32.9629 28.6667 33.3333 28.6667C34.1618 28.6667 34.8333 27.9951 34.8333 27.1667C34.8333 26.3382 34.1618 25.6667 33.3333 25.6667C32.4643 25.6667 29.5961 25.6667 29.5961 25.6667C28.9649 23.7316 27.1458 22.3333 25 22.3333C22.8542 22.3333 21.0351 23.7316 20.404 25.6667C15.8249 25.6667 11.2458 25.6667 6.66667 25.6667ZM25 25.3333C23.9875 25.3333 23.1667 26.1541 23.1667 27.1667C23.1667 28.1792 23.9875 29 25 29C26.0125 29 26.8333 28.1792 26.8333 27.1667C26.8333 26.1541 26.0125 25.3333 25 25.3333Z" stroke="#0A66C2" stroke-width="0.5"/>
</svg>
