<svg width="21" height="17" viewBox="0 0 21 17" fill="none" xmlns="http://www.w3.org/2000/svg">
<path d="M10.8727 0.00539827C9.75693 0.0841283 8.87623 1.01421 8.87623 2.15L8.87523 4.26707L8.8548 4.27197C4.32251 5.21096 0.976227 9.22711 0.976227 13.9654C0.976227 14.3097 0.993834 14.6528 1.02866 14.993C1.11168 15.8042 2.14433 16.0957 2.63925 15.4477L2.82605 15.2112C4.28537 13.4247 6.36307 12.2529 8.66174 11.9459L8.87523 11.9201L8.87623 14.4144C8.87623 14.895 9.03743 15.362 9.33406 15.7404C10.0665 16.675 11.418 16.8388 12.3525 16.1063L20.1762 9.97424C20.3124 9.86746 20.4353 9.74461 20.5421 9.60837C21.2746 8.67381 21.1108 7.3224 20.1762 6.5899L12.3525 0.45783C11.9741 0.161198 11.5071 0 11.0262 0L10.8727 0.00539827ZM11.0262 1.8C11.1045 1.8 11.1805 1.82624 11.2421 1.87453L19.0658 8.0066C19.218 8.12585 19.2446 8.34584 19.1254 8.49798C19.108 8.52016 19.088 8.54016 19.0658 8.55754L11.2421 14.6896C11.09 14.8089 10.87 14.7822 10.7508 14.6301C10.7025 14.5684 10.6762 14.4924 10.6762 14.4141L10.6752 10.9668C10.6751 10.4641 10.2631 10.0589 9.76043 10.0672L9.52729 10.071L9.18507 10.0876C6.91097 10.2327 4.78833 11.0747 3.06652 12.4534L2.89223 12.5971L2.91603 12.4617C3.55884 9.04627 6.35095 6.35636 9.88438 5.92545C10.3359 5.8704 10.6753 5.48715 10.6754 5.03232L10.6762 2.15025C10.6762 1.9567 10.8329 1.8 11.0262 1.8Z" fill="#99A2AD"/>
</svg>
